<svg xmlns="http://www.w3.org/2000/svg" xmlns:xlink="http://www.w3.org/1999/xlink" width="500" zoomAndPan="magnify" viewBox="0 0 375 187.499995" height="250" preserveAspectRatio="xMidYMid meet" version="1.0"><defs><g/></defs><path stroke-linecap="butt" transform="matrix(-0.759877, 0, 0, -0.759877, 343.547712, 42.326451)" fill="none" stroke-linejoin="miter" d="M 0.00110099 9.497696 L 51.988369 9.497696 " stroke="#2b2b2b" stroke-width="19" stroke-opacity="1" stroke-miterlimit="4"/><path stroke-linecap="butt" transform="matrix(0, -0.759877, 0.759877, 0, 329.234426, 67.514874)" fill="none" stroke-linejoin="miter" d="M -0.000988316 9.499831 L 51.98628 9.499831 " stroke="#2b2b2b" stroke-width="19" stroke-opacity="1" stroke-miterlimit="4"/><path stroke-linecap="butt" transform="matrix(1.182561, 0, 0, 1.182561, 30.072094, 144.910608)" fill="none" stroke-linejoin="miter" d="M -0.00150622 6.001554 L 33.403873 6.001554 " stroke="#2b2b2b" stroke-width="12" stroke-opacity="1" stroke-miterlimit="4"/><path stroke-linecap="butt" transform="matrix(0, 1.182561, -1.182561, 0, 44.254296, 119.606349)" fill="none" stroke-linejoin="miter" d="M -0.000743979 5.998962 L 33.404636 5.998962 " stroke="#2b2b2b" stroke-width="12" stroke-opacity="1" stroke-miterlimit="4"/><path stroke-linecap="butt" transform="matrix(0, 0.759877, -0.759877, 0, 44.379498, 29.144873)" fill="none" stroke-linejoin="miter" d="M -0.000449659 9.500678 L 51.986819 9.500678 " stroke="#2b2b2b" stroke-width="19" stroke-opacity="1" stroke-miterlimit="4"/><path stroke-linecap="butt" transform="matrix(-0.759877, 0, 0, -0.759877, 69.567919, 43.458156)" fill="none" stroke-linejoin="miter" d="M 0.00199053 9.501378 L 51.989259 9.501378 " stroke="#2b2b2b" stroke-width="19" stroke-opacity="1" stroke-miterlimit="4"/><path stroke-linecap="butt" transform="matrix(0, -0.759877, 0.759877, 0, 330.471411, 157.979998)" fill="none" stroke-linejoin="miter" d="M -0.000619866 9.501536 L 53.970935 9.501536 " stroke="#2b2b2b" stroke-width="19" stroke-opacity="1" stroke-miterlimit="4"/><path stroke-linecap="butt" transform="matrix(0.759877, 0, 0, 0.759877, 304.045992, 143.395824)" fill="none" stroke-linejoin="miter" d="M 0.00116268 9.498197 L 53.972717 9.498197 " stroke="#2b2b2b" stroke-width="19" stroke-opacity="1" stroke-miterlimit="4"/><g fill="#2b2b2b" fill-opacity="1"><g transform="translate(63.791896, 118.507893)"><g><path d="M 4.09375 -56.1875 L 20.359375 -56.1875 C 28.171875 -56.1875 34.847656 -53.519531 40.390625 -48.1875 C 45.929688 -42.851562 48.703125 -36.164062 48.703125 -28.125 C 48.703125 -20.039062 45.941406 -13.332031 40.421875 -8 C 34.898438 -2.664062 28.210938 0 20.359375 0 L 4.09375 0 Z M 16.890625 -11.4375 L 18.859375 -11.4375 C 23.535156 -11.4375 27.359375 -13.015625 30.328125 -16.171875 C 33.304688 -19.328125 34.820312 -23.289062 34.875 -28.0625 C 34.875 -32.832031 33.382812 -36.804688 30.40625 -39.984375 C 27.4375 -43.160156 23.585938 -44.75 18.859375 -44.75 L 16.890625 -44.75 Z M 16.890625 -11.4375 "/></g></g></g><g fill="#2b2b2b" fill-opacity="1"><g transform="translate(112.491345, 118.507893)"><g><path d="M 1.5625 -28.125 C 1.5625 -36.257812 4.332031 -43.140625 9.875 -48.765625 C 15.414062 -54.398438 22.09375 -57.21875 29.90625 -57.21875 C 37.757812 -57.21875 44.429688 -54.410156 49.921875 -48.796875 C 55.421875 -43.191406 58.171875 -36.300781 58.171875 -28.125 C 58.171875 -19.90625 55.46875 -12.992188 50.0625 -7.390625 C 44.65625 -1.785156 37.9375 1.015625 29.90625 1.015625 C 21.6875 1.015625 14.90625 -1.765625 9.5625 -7.328125 C 4.226562 -12.890625 1.5625 -19.820312 1.5625 -28.125 Z M 15.390625 -28.125 C 15.390625 -25.175781 15.84375 -22.488281 16.75 -20.0625 C 17.65625 -17.632812 19.242188 -15.578125 21.515625 -13.890625 C 23.785156 -12.210938 26.582031 -11.375 29.90625 -11.375 C 34.664062 -11.375 38.257812 -13.007812 40.6875 -16.28125 C 43.125 -19.550781 44.34375 -23.5 44.34375 -28.125 C 44.34375 -32.71875 43.101562 -36.660156 40.625 -39.953125 C 38.15625 -43.242188 34.582031 -44.890625 29.90625 -44.890625 C 25.269531 -44.890625 21.691406 -43.242188 19.171875 -39.953125 C 16.648438 -36.660156 15.390625 -32.71875 15.390625 -28.125 Z M 15.390625 -28.125 "/></g></g></g><g fill="#2b2b2b" fill-opacity="1"><g transform="translate(170.65829, 118.507893)"><g><path d="M 0.546875 -44.953125 L 0.546875 -56.1875 L 40.046875 -56.1875 L 40.046875 -44.953125 L 26.703125 -44.953125 L 26.703125 0 L 13.890625 0 L 13.890625 -44.953125 Z M 0.546875 -44.953125 "/></g></g></g><g fill="#2b2b2b" fill-opacity="1"><g transform="translate(209.685911, 118.507893)"><g><path d="M 0.546875 -44.953125 L 0.546875 -56.1875 L 40.046875 -56.1875 L 40.046875 -44.953125 L 26.703125 -44.953125 L 26.703125 0 L 13.890625 0 L 13.890625 -44.953125 Z M 0.546875 -44.953125 "/></g></g></g><g fill="#2b2b2b" fill-opacity="1"><g transform="translate(248.713541, 118.507893)"><g><path d="M -2.046875 -56.1875 L 13.34375 -56.1875 L 25.0625 -38.203125 L 36.78125 -56.1875 L 52.171875 -56.1875 L 31.46875 -25.203125 L 31.46875 0 L 18.65625 0 L 18.65625 -25.203125 Z M -2.046875 -56.1875 "/></g></g></g><g fill="#2b2b2b" fill-opacity="1"><g transform="translate(297.276768, 118.507893)"><g><path d="M 11.84375 -14.578125 C 14.03125 -14.578125 15.882812 -13.816406 17.40625 -12.296875 C 18.925781 -10.773438 19.6875 -8.925781 19.6875 -6.75 C 19.6875 -4.613281 18.925781 -2.785156 17.40625 -1.265625 C 15.882812 0.253906 14.03125 1.015625 11.84375 1.015625 C 9.71875 1.015625 7.894531 0.253906 6.375 -1.265625 C 4.851562 -2.785156 4.09375 -4.613281 4.09375 -6.75 C 4.09375 -8.925781 4.851562 -10.773438 6.375 -12.296875 C 7.894531 -13.816406 9.71875 -14.578125 11.84375 -14.578125 Z M 11.84375 -14.578125 "/></g></g></g></svg>